<?xml version="1.0" encoding="utf-8" standalone="no"?>
<!DOCTYPE svg PUBLIC "-//W3C//DTD SVG 1.1//EN"
  "http://www.w3.org/Graphics/SVG/1.1/DTD/svg11.dtd">
<svg height="173.345312pt" version="1.1" viewBox="0 0 294.336488 173.345312" width="294.336488pt" xmlns="http://www.w3.org/2000/svg" xmlns:xlink="http://www.w3.org/1999/xlink">
 <metadata>
  <rdf:RDF xmlns:cc="http://creativecommons.org/ns#" xmlns:dc="http://purl.org/dc/elements/1.1/" xmlns:rdf="http://www.w3.org/1999/02/22-rdf-syntax-ns#">
   <cc:Work>
    <dc:type rdf:resource="http://purl.org/dc/dcmitype/StillImage"/>
    <dc:date>2026-01-07T18:09:23.449284</dc:date>
    <dc:format>image/svg+xml</dc:format>
    <dc:creator>
     <cc:Agent>
      <dc:title>Matplotlib v3.4.3, https://matplotlib.org/</dc:title>
     </cc:Agent>
    </dc:creator>
   </cc:Work>
  </rdf:RDF>
 </metadata>
 <defs>
  <style type="text/css">*{stroke-linecap:butt;stroke-linejoin:round;}</style>
 </defs>
 <g id="figure_1">
  <g id="patch_1">
   <path d="M 0 173.345312 
L 294.336488 173.345312 
L 294.336488 0 
L 0 0 
z
" style="fill:#ffffff;"/>
  </g>
  <g id="axes_1">
   <g id="patch_2">
    <path d="M 20.31125 152.569062 
L 283.933297 152.569062 
L 283.933297 19.490625 
L 20.31125 19.490625 
z
" style="fill:#ffffff;"/>
   </g>
   <g id="line2d_1">
    <path clip-path="url(#p713ca971d7)" d="M 152.122274 58.673274 
L 162.261583 66.889676 
L 172.400893 74.245607 
L 182.540202 84.621363 
L 192.679512 95.417719 
L 202.818821 102.996236 
L 212.958131 110.575794 
L 223.09744 113.14678 
L 233.23675 111.814984 
L 243.376059 108.56729 
L 253.515369 104.657884 
L 263.654678 96.130876 
L 273.793988 86.263303 
" style="fill:none;stroke:#929591;stroke-linecap:square;stroke-width:0.6;"/>
   </g>
   <g id="matplotlib.axis_1">
    <g id="xtick_1">
     <g id="line2d_2">
      <path clip-path="url(#p713ca971d7)" d="M 30.45056 152.569062 
L 30.45056 19.490625 
" style="fill:none;stroke:#000000;stroke-dasharray:3.84,0.96,0.6,0.96;stroke-dashoffset:0;stroke-opacity:0;stroke-width:0.6;"/>
     </g>
     <g id="line2d_3">
      <defs>
       <path d="M 0 0 
L 0 4 
" id="m02a5843bfb" style="stroke:#000000;stroke-width:0.6;"/>
      </defs>
      <g>
       <use style="stroke:#000000;stroke-width:0.6;" x="30.45056" xlink:href="#m02a5843bfb" y="152.569062"/>
      </g>
     </g>
     <g id="text_1">
      <!-- 202303 -->
      <g transform="translate(17.10806 164.401562)scale(0.08 -0.08)">
       <defs>
        <path d="M 3270 3206 
Q 3270 2349 2310 1837 
L 1670 1491 
Q 1254 1248 1075 1043 
Q 896 838 851 557 
L 3238 557 
L 3238 0 
L 218 0 
Q 256 749 518 1155 
Q 781 1562 1491 1965 
L 2080 2298 
Q 2694 2650 2694 3194 
Q 2694 3558 2438 3801 
Q 2182 4045 1798 4045 
Q 1370 4045 1142 3785 
Q 915 3526 883 2963 
L 320 2963 
Q 365 4538 1818 4538 
Q 2458 4538 2864 4160 
Q 3270 3782 3270 3206 
z
" id="TeXGyreHeros-Regular-32" transform="scale(0.015625)"/>
        <path d="M 3245 2182 
Q 3245 1069 2864 486 
Q 2483 -96 1760 -96 
Q 1030 -96 652 489 
Q 275 1075 275 2220 
Q 275 3366 649 3952 
Q 1024 4538 1760 4538 
Q 3245 4538 3245 2182 
z
M 2669 2234 
Q 2669 4038 1760 4038 
Q 851 4038 851 2214 
Q 851 371 1747 371 
Q 2221 371 2445 822 
Q 2669 1274 2669 2234 
z
" id="TeXGyreHeros-Regular-30" transform="scale(0.015625)"/>
        <path d="M 3238 1318 
Q 3238 672 2819 288 
Q 2400 -96 1702 -96 
Q 998 -96 627 262 
Q 256 621 205 1370 
L 768 1370 
Q 800 877 1030 640 
Q 1261 403 1722 403 
Q 2163 403 2412 643 
Q 2662 883 2662 1312 
Q 2662 1696 2422 1904 
Q 2182 2112 1722 2112 
L 1414 2112 
L 1414 2586 
Q 2067 2586 2297 2739 
Q 2528 2893 2528 3270 
Q 2528 3629 2313 3837 
Q 2099 4045 1728 4045 
Q 1293 4045 1081 3808 
Q 870 3571 864 3072 
L 301 3072 
Q 333 4538 1722 4538 
Q 2368 4538 2736 4205 
Q 3104 3872 3104 3290 
Q 3104 2624 2470 2374 
Q 2874 2234 3056 1984 
Q 3238 1734 3238 1318 
z
" id="TeXGyreHeros-Regular-33" transform="scale(0.015625)"/>
       </defs>
       <use xlink:href="#TeXGyreHeros-Regular-32"/>
       <use x="55.599991" xlink:href="#TeXGyreHeros-Regular-30"/>
       <use x="111.199982" xlink:href="#TeXGyreHeros-Regular-32"/>
       <use x="166.799973" xlink:href="#TeXGyreHeros-Regular-33"/>
       <use x="222.399963" xlink:href="#TeXGyreHeros-Regular-30"/>
       <use x="277.999954" xlink:href="#TeXGyreHeros-Regular-33"/>
      </g>
     </g>
    </g>
    <g id="xtick_2">
     <g id="line2d_4">
      <path clip-path="url(#p713ca971d7)" d="M 60.868488 152.569062 
L 60.868488 19.490625 
" style="fill:none;stroke:#000000;stroke-dasharray:3.84,0.96,0.6,0.96;stroke-dashoffset:0;stroke-opacity:0;stroke-width:0.6;"/>
     </g>
     <g id="line2d_5">
      <g>
       <use style="stroke:#000000;stroke-width:0.6;" x="60.868488" xlink:href="#m02a5843bfb" y="152.569062"/>
      </g>
     </g>
     <g id="text_2">
      <!-- 202306 -->
      <g transform="translate(47.525988 164.401562)scale(0.08 -0.08)">
       <defs>
        <path d="M 3283 1408 
Q 3283 742 2867 323 
Q 2451 -96 1798 -96 
Q 275 -96 275 2067 
Q 275 3258 694 3898 
Q 1114 4538 1901 4538 
Q 2419 4538 2761 4224 
Q 3104 3910 3187 3354 
L 2624 3354 
Q 2554 3680 2355 3859 
Q 2157 4038 1862 4038 
Q 1376 4038 1117 3593 
Q 858 3149 851 2317 
Q 1222 2822 1894 2822 
Q 2509 2822 2896 2432 
Q 3283 2042 3283 1408 
z
M 2707 1363 
Q 2707 1818 2470 2070 
Q 2234 2323 1824 2323 
Q 1402 2323 1142 2070 
Q 883 1818 883 1395 
Q 883 960 1145 681 
Q 1408 403 1805 403 
Q 2195 403 2451 672 
Q 2707 941 2707 1363 
z
" id="TeXGyreHeros-Regular-36" transform="scale(0.015625)"/>
       </defs>
       <use xlink:href="#TeXGyreHeros-Regular-32"/>
       <use x="55.599991" xlink:href="#TeXGyreHeros-Regular-30"/>
       <use x="111.199982" xlink:href="#TeXGyreHeros-Regular-32"/>
       <use x="166.799973" xlink:href="#TeXGyreHeros-Regular-33"/>
       <use x="222.399963" xlink:href="#TeXGyreHeros-Regular-30"/>
       <use x="277.999954" xlink:href="#TeXGyreHeros-Regular-36"/>
      </g>
     </g>
    </g>
    <g id="xtick_3">
     <g id="line2d_6">
      <path clip-path="url(#p713ca971d7)" d="M 91.286417 152.569062 
L 91.286417 19.490625 
" style="fill:none;stroke:#000000;stroke-dasharray:3.84,0.96,0.6,0.96;stroke-dashoffset:0;stroke-opacity:0;stroke-width:0.6;"/>
     </g>
     <g id="line2d_7">
      <g>
       <use style="stroke:#000000;stroke-width:0.6;" x="91.286417" xlink:href="#m02a5843bfb" y="152.569062"/>
      </g>
     </g>
     <g id="text_3">
      <!-- 202309 -->
      <g transform="translate(77.943917 164.401562)scale(0.08 -0.08)">
       <defs>
        <path d="M 3258 2374 
Q 3258 1190 2838 547 
Q 2419 -96 1626 -96 
Q 1107 -96 764 217 
Q 422 531 339 1088 
L 902 1088 
Q 973 762 1171 582 
Q 1370 403 1664 403 
Q 2150 403 2409 848 
Q 2669 1293 2675 2125 
Q 2253 1619 1638 1619 
Q 1024 1619 633 2009 
Q 243 2400 243 3034 
Q 243 3699 659 4118 
Q 1075 4538 1728 4538 
Q 3258 4538 3258 2374 
z
M 2643 3046 
Q 2643 3482 2380 3763 
Q 2118 4045 1722 4045 
Q 1331 4045 1075 3776 
Q 819 3507 819 3078 
Q 819 2624 1056 2371 
Q 1293 2118 1702 2118 
Q 2118 2118 2380 2374 
Q 2643 2630 2643 3046 
z
" id="TeXGyreHeros-Regular-39" transform="scale(0.015625)"/>
       </defs>
       <use xlink:href="#TeXGyreHeros-Regular-32"/>
       <use x="55.599991" xlink:href="#TeXGyreHeros-Regular-30"/>
       <use x="111.199982" xlink:href="#TeXGyreHeros-Regular-32"/>
       <use x="166.799973" xlink:href="#TeXGyreHeros-Regular-33"/>
       <use x="222.399963" xlink:href="#TeXGyreHeros-Regular-30"/>
       <use x="277.999954" xlink:href="#TeXGyreHeros-Regular-39"/>
      </g>
     </g>
    </g>
    <g id="xtick_4">
     <g id="line2d_8">
      <path clip-path="url(#p713ca971d7)" d="M 121.704345 152.569062 
L 121.704345 19.490625 
" style="fill:none;stroke:#000000;stroke-dasharray:3.84,0.96,0.6,0.96;stroke-dashoffset:0;stroke-opacity:0;stroke-width:0.6;"/>
     </g>
     <g id="line2d_9">
      <g>
       <use style="stroke:#000000;stroke-width:0.6;" x="121.704345" xlink:href="#m02a5843bfb" y="152.569062"/>
      </g>
     </g>
     <g id="text_4">
      <!-- 202312 -->
      <g transform="translate(108.361845 164.401562)scale(0.08 -0.08)">
       <defs>
        <path d="M 2221 0 
L 1658 0 
L 1658 3232 
L 653 3232 
L 653 3635 
Q 1306 3718 1504 3865 
Q 1702 4013 1850 4538 
L 2221 4538 
L 2221 0 
z
" id="TeXGyreHeros-Regular-31" transform="scale(0.015625)"/>
       </defs>
       <use xlink:href="#TeXGyreHeros-Regular-32"/>
       <use x="55.599991" xlink:href="#TeXGyreHeros-Regular-30"/>
       <use x="111.199982" xlink:href="#TeXGyreHeros-Regular-32"/>
       <use x="166.799973" xlink:href="#TeXGyreHeros-Regular-33"/>
       <use x="222.399963" xlink:href="#TeXGyreHeros-Regular-31"/>
       <use x="277.999954" xlink:href="#TeXGyreHeros-Regular-32"/>
      </g>
     </g>
    </g>
    <g id="xtick_5">
     <g id="line2d_10">
      <path clip-path="url(#p713ca971d7)" d="M 152.122274 152.569062 
L 152.122274 19.490625 
" style="fill:none;stroke:#000000;stroke-dasharray:3.84,0.96,0.6,0.96;stroke-dashoffset:0;stroke-opacity:0;stroke-width:0.6;"/>
     </g>
     <g id="line2d_11">
      <g>
       <use style="stroke:#000000;stroke-width:0.6;" x="152.122274" xlink:href="#m02a5843bfb" y="152.569062"/>
      </g>
     </g>
     <g id="text_5">
      <!-- 202403 -->
      <g transform="translate(138.779774 164.401562)scale(0.08 -0.08)">
       <defs>
        <path d="M 3328 1088 
L 2656 1088 
L 2656 0 
L 2093 0 
L 2093 1088 
L 179 1088 
L 179 1683 
L 2240 4538 
L 2656 4538 
L 2656 1594 
L 3328 1594 
L 3328 1088 
z
M 2093 1594 
L 2093 3578 
L 672 1594 
L 2093 1594 
z
" id="TeXGyreHeros-Regular-34" transform="scale(0.015625)"/>
       </defs>
       <use xlink:href="#TeXGyreHeros-Regular-32"/>
       <use x="55.599991" xlink:href="#TeXGyreHeros-Regular-30"/>
       <use x="111.199982" xlink:href="#TeXGyreHeros-Regular-32"/>
       <use x="166.799973" xlink:href="#TeXGyreHeros-Regular-34"/>
       <use x="222.399963" xlink:href="#TeXGyreHeros-Regular-30"/>
       <use x="277.999954" xlink:href="#TeXGyreHeros-Regular-33"/>
      </g>
     </g>
    </g>
    <g id="xtick_6">
     <g id="line2d_12">
      <path clip-path="url(#p713ca971d7)" d="M 182.540202 152.569062 
L 182.540202 19.490625 
" style="fill:none;stroke:#000000;stroke-dasharray:3.84,0.96,0.6,0.96;stroke-dashoffset:0;stroke-opacity:0;stroke-width:0.6;"/>
     </g>
     <g id="line2d_13">
      <g>
       <use style="stroke:#000000;stroke-width:0.6;" x="182.540202" xlink:href="#m02a5843bfb" y="152.569062"/>
      </g>
     </g>
     <g id="text_6">
      <!-- 202406 -->
      <g transform="translate(169.197702 164.401562)scale(0.08 -0.08)">
       <use xlink:href="#TeXGyreHeros-Regular-32"/>
       <use x="55.599991" xlink:href="#TeXGyreHeros-Regular-30"/>
       <use x="111.199982" xlink:href="#TeXGyreHeros-Regular-32"/>
       <use x="166.799973" xlink:href="#TeXGyreHeros-Regular-34"/>
       <use x="222.399963" xlink:href="#TeXGyreHeros-Regular-30"/>
       <use x="277.999954" xlink:href="#TeXGyreHeros-Regular-36"/>
      </g>
     </g>
    </g>
    <g id="xtick_7">
     <g id="line2d_14">
      <path clip-path="url(#p713ca971d7)" d="M 212.958131 152.569062 
L 212.958131 19.490625 
" style="fill:none;stroke:#000000;stroke-dasharray:3.84,0.96,0.6,0.96;stroke-dashoffset:0;stroke-opacity:0;stroke-width:0.6;"/>
     </g>
     <g id="line2d_15">
      <g>
       <use style="stroke:#000000;stroke-width:0.6;" x="212.958131" xlink:href="#m02a5843bfb" y="152.569062"/>
      </g>
     </g>
     <g id="text_7">
      <!-- 202409 -->
      <g transform="translate(199.615631 164.401562)scale(0.08 -0.08)">
       <use xlink:href="#TeXGyreHeros-Regular-32"/>
       <use x="55.599991" xlink:href="#TeXGyreHeros-Regular-30"/>
       <use x="111.199982" xlink:href="#TeXGyreHeros-Regular-32"/>
       <use x="166.799973" xlink:href="#TeXGyreHeros-Regular-34"/>
       <use x="222.399963" xlink:href="#TeXGyreHeros-Regular-30"/>
       <use x="277.999954" xlink:href="#TeXGyreHeros-Regular-39"/>
      </g>
     </g>
    </g>
    <g id="xtick_8">
     <g id="line2d_16">
      <path clip-path="url(#p713ca971d7)" d="M 243.376059 152.569062 
L 243.376059 19.490625 
" style="fill:none;stroke:#000000;stroke-dasharray:3.84,0.96,0.6,0.96;stroke-dashoffset:0;stroke-opacity:0;stroke-width:0.6;"/>
     </g>
     <g id="line2d_17">
      <g>
       <use style="stroke:#000000;stroke-width:0.6;" x="243.376059" xlink:href="#m02a5843bfb" y="152.569062"/>
      </g>
     </g>
     <g id="text_8">
      <!-- 202412 -->
      <g transform="translate(230.033559 164.401562)scale(0.08 -0.08)">
       <use xlink:href="#TeXGyreHeros-Regular-32"/>
       <use x="55.599991" xlink:href="#TeXGyreHeros-Regular-30"/>
       <use x="111.199982" xlink:href="#TeXGyreHeros-Regular-32"/>
       <use x="166.799973" xlink:href="#TeXGyreHeros-Regular-34"/>
       <use x="222.399963" xlink:href="#TeXGyreHeros-Regular-31"/>
       <use x="277.999954" xlink:href="#TeXGyreHeros-Regular-32"/>
      </g>
     </g>
    </g>
    <g id="xtick_9">
     <g id="line2d_18">
      <path clip-path="url(#p713ca971d7)" d="M 273.793988 152.569062 
L 273.793988 19.490625 
" style="fill:none;stroke:#000000;stroke-dasharray:3.84,0.96,0.6,0.96;stroke-dashoffset:0;stroke-opacity:0;stroke-width:0.6;"/>
     </g>
     <g id="line2d_19">
      <g>
       <use style="stroke:#000000;stroke-width:0.6;" x="273.793988" xlink:href="#m02a5843bfb" y="152.569062"/>
      </g>
     </g>
     <g id="text_9">
      <!-- 202503 -->
      <g transform="translate(260.451488 164.401562)scale(0.08 -0.08)">
       <defs>
        <path d="M 3283 1504 
Q 3283 787 2851 345 
Q 2419 -96 1728 -96 
Q 1107 -96 732 205 
Q 358 506 224 1165 
L 787 1165 
Q 986 403 1715 403 
Q 2182 403 2444 672 
Q 2707 941 2707 1427 
Q 2707 1926 2441 2208 
Q 2176 2490 1715 2490 
Q 1453 2490 1267 2397 
Q 1082 2304 883 2067 
L 365 2067 
L 704 4442 
L 3046 4442 
L 3046 3885 
L 1158 3885 
L 979 2714 
Q 1357 2989 1818 2989 
Q 2470 2989 2876 2582 
Q 3283 2176 3283 1504 
z
" id="TeXGyreHeros-Regular-35" transform="scale(0.015625)"/>
       </defs>
       <use xlink:href="#TeXGyreHeros-Regular-32"/>
       <use x="55.599991" xlink:href="#TeXGyreHeros-Regular-30"/>
       <use x="111.199982" xlink:href="#TeXGyreHeros-Regular-32"/>
       <use x="166.799973" xlink:href="#TeXGyreHeros-Regular-35"/>
       <use x="222.399963" xlink:href="#TeXGyreHeros-Regular-30"/>
       <use x="277.999954" xlink:href="#TeXGyreHeros-Regular-33"/>
      </g>
     </g>
    </g>
    <g id="xtick_10">
     <g id="line2d_20">
      <defs>
       <path d="M 0 0 
L 0 2.5 
" id="mf8653b8e23" style="stroke:#000000;stroke-width:0.6;"/>
      </defs>
      <g>
       <use style="stroke:#000000;stroke-width:0.6;" x="40.589869" xlink:href="#mf8653b8e23" y="152.569062"/>
      </g>
     </g>
    </g>
    <g id="xtick_11">
     <g id="line2d_21">
      <g>
       <use style="stroke:#000000;stroke-width:0.6;" x="50.729179" xlink:href="#mf8653b8e23" y="152.569062"/>
      </g>
     </g>
    </g>
    <g id="xtick_12">
     <g id="line2d_22">
      <g>
       <use style="stroke:#000000;stroke-width:0.6;" x="71.007798" xlink:href="#mf8653b8e23" y="152.569062"/>
      </g>
     </g>
    </g>
    <g id="xtick_13">
     <g id="line2d_23">
      <g>
       <use style="stroke:#000000;stroke-width:0.6;" x="81.147107" xlink:href="#mf8653b8e23" y="152.569062"/>
      </g>
     </g>
    </g>
    <g id="xtick_14">
     <g id="line2d_24">
      <g>
       <use style="stroke:#000000;stroke-width:0.6;" x="101.425726" xlink:href="#mf8653b8e23" y="152.569062"/>
      </g>
     </g>
    </g>
    <g id="xtick_15">
     <g id="line2d_25">
      <g>
       <use style="stroke:#000000;stroke-width:0.6;" x="111.565036" xlink:href="#mf8653b8e23" y="152.569062"/>
      </g>
     </g>
    </g>
    <g id="xtick_16">
     <g id="line2d_26">
      <g>
       <use style="stroke:#000000;stroke-width:0.6;" x="131.843655" xlink:href="#mf8653b8e23" y="152.569062"/>
      </g>
     </g>
    </g>
    <g id="xtick_17">
     <g id="line2d_27">
      <g>
       <use style="stroke:#000000;stroke-width:0.6;" x="141.982964" xlink:href="#mf8653b8e23" y="152.569062"/>
      </g>
     </g>
    </g>
    <g id="xtick_18">
     <g id="line2d_28">
      <g>
       <use style="stroke:#000000;stroke-width:0.6;" x="162.261583" xlink:href="#mf8653b8e23" y="152.569062"/>
      </g>
     </g>
    </g>
    <g id="xtick_19">
     <g id="line2d_29">
      <g>
       <use style="stroke:#000000;stroke-width:0.6;" x="172.400893" xlink:href="#mf8653b8e23" y="152.569062"/>
      </g>
     </g>
    </g>
    <g id="xtick_20">
     <g id="line2d_30">
      <g>
       <use style="stroke:#000000;stroke-width:0.6;" x="192.679512" xlink:href="#mf8653b8e23" y="152.569062"/>
      </g>
     </g>
    </g>
    <g id="xtick_21">
     <g id="line2d_31">
      <g>
       <use style="stroke:#000000;stroke-width:0.6;" x="202.818821" xlink:href="#mf8653b8e23" y="152.569062"/>
      </g>
     </g>
    </g>
    <g id="xtick_22">
     <g id="line2d_32">
      <g>
       <use style="stroke:#000000;stroke-width:0.6;" x="223.09744" xlink:href="#mf8653b8e23" y="152.569062"/>
      </g>
     </g>
    </g>
    <g id="xtick_23">
     <g id="line2d_33">
      <g>
       <use style="stroke:#000000;stroke-width:0.6;" x="233.23675" xlink:href="#mf8653b8e23" y="152.569062"/>
      </g>
     </g>
    </g>
    <g id="xtick_24">
     <g id="line2d_34">
      <g>
       <use style="stroke:#000000;stroke-width:0.6;" x="253.515369" xlink:href="#mf8653b8e23" y="152.569062"/>
      </g>
     </g>
    </g>
    <g id="xtick_25">
     <g id="line2d_35">
      <g>
       <use style="stroke:#000000;stroke-width:0.6;" x="263.654678" xlink:href="#mf8653b8e23" y="152.569062"/>
      </g>
     </g>
    </g>
   </g>
   <g id="matplotlib.axis_2">
    <g id="ytick_1">
     <g id="line2d_36">
      <path clip-path="url(#p713ca971d7)" d="M 20.31125 143.06346 
L 283.933297 143.06346 
" style="fill:none;stroke:#000000;stroke-dasharray:3.84,0.96,0.6,0.96;stroke-dashoffset:0;stroke-opacity:0;stroke-width:0.6;"/>
     </g>
     <g id="line2d_37">
      <defs>
       <path d="M 0 0 
L -4 0 
" id="m69026215db" style="stroke:#000000;stroke-width:0.6;"/>
      </defs>
      <g>
       <use style="stroke:#000000;stroke-width:0.6;" x="20.31125" xlink:href="#m69026215db" y="143.06346"/>
      </g>
     </g>
     <g id="text_10">
      <!-- -3 -->
      <g transform="translate(7.2 145.97971)scale(0.08 -0.08)">
       <defs>
        <path d="M 1818 1536 
L 294 1536 
L 294 1997 
L 1818 1997 
L 1818 1536 
z
" id="TeXGyreHeros-Regular-2d" transform="scale(0.015625)"/>
       </defs>
       <use xlink:href="#TeXGyreHeros-Regular-2d"/>
       <use x="33.299988" xlink:href="#TeXGyreHeros-Regular-33"/>
      </g>
     </g>
    </g>
    <g id="ytick_2">
     <g id="line2d_38">
      <path clip-path="url(#p713ca971d7)" d="M 20.31125 124.052254 
L 283.933297 124.052254 
" style="fill:none;stroke:#000000;stroke-dasharray:3.84,0.96,0.6,0.96;stroke-dashoffset:0;stroke-opacity:0;stroke-width:0.6;"/>
     </g>
     <g id="line2d_39">
      <g>
       <use style="stroke:#000000;stroke-width:0.6;" x="20.31125" xlink:href="#m69026215db" y="124.052254"/>
      </g>
     </g>
     <g id="text_11">
      <!-- -2 -->
      <g transform="translate(7.2 126.968504)scale(0.08 -0.08)">
       <use xlink:href="#TeXGyreHeros-Regular-2d"/>
       <use x="33.299988" xlink:href="#TeXGyreHeros-Regular-32"/>
      </g>
     </g>
    </g>
    <g id="ytick_3">
     <g id="line2d_40">
      <path clip-path="url(#p713ca971d7)" d="M 20.31125 105.041049 
L 283.933297 105.041049 
" style="fill:none;stroke:#000000;stroke-dasharray:3.84,0.96,0.6,0.96;stroke-dashoffset:0;stroke-opacity:0;stroke-width:0.6;"/>
     </g>
     <g id="line2d_41">
      <g>
       <use style="stroke:#000000;stroke-width:0.6;" x="20.31125" xlink:href="#m69026215db" y="105.041049"/>
      </g>
     </g>
     <g id="text_12">
      <!-- -1 -->
      <g transform="translate(7.2 107.957299)scale(0.08 -0.08)">
       <use xlink:href="#TeXGyreHeros-Regular-2d"/>
       <use x="33.299988" xlink:href="#TeXGyreHeros-Regular-31"/>
      </g>
     </g>
    </g>
    <g id="ytick_4">
     <g id="line2d_42">
      <path clip-path="url(#p713ca971d7)" d="M 20.31125 86.029844 
L 283.933297 86.029844 
" style="fill:none;stroke:#000000;stroke-dasharray:3.84,0.96,0.6,0.96;stroke-dashoffset:0;stroke-opacity:0;stroke-width:0.6;"/>
     </g>
     <g id="line2d_43">
      <g>
       <use style="stroke:#000000;stroke-width:0.6;" x="20.31125" xlink:href="#m69026215db" y="86.029844"/>
      </g>
     </g>
     <g id="text_13">
      <!-- 0 -->
      <g transform="translate(9.86375 88.946094)scale(0.08 -0.08)">
       <use xlink:href="#TeXGyreHeros-Regular-30"/>
      </g>
     </g>
    </g>
    <g id="ytick_5">
     <g id="line2d_44">
      <path clip-path="url(#p713ca971d7)" d="M 20.31125 67.018638 
L 283.933297 67.018638 
" style="fill:none;stroke:#000000;stroke-dasharray:3.84,0.96,0.6,0.96;stroke-dashoffset:0;stroke-opacity:0;stroke-width:0.6;"/>
     </g>
     <g id="line2d_45">
      <g>
       <use style="stroke:#000000;stroke-width:0.6;" x="20.31125" xlink:href="#m69026215db" y="67.018638"/>
      </g>
     </g>
     <g id="text_14">
      <!-- 1 -->
      <g transform="translate(9.86375 69.934888)scale(0.08 -0.08)">
       <use xlink:href="#TeXGyreHeros-Regular-31"/>
      </g>
     </g>
    </g>
    <g id="ytick_6">
     <g id="line2d_46">
      <path clip-path="url(#p713ca971d7)" d="M 20.31125 48.007433 
L 283.933297 48.007433 
" style="fill:none;stroke:#000000;stroke-dasharray:3.84,0.96,0.6,0.96;stroke-dashoffset:0;stroke-opacity:0;stroke-width:0.6;"/>
     </g>
     <g id="line2d_47">
      <g>
       <use style="stroke:#000000;stroke-width:0.6;" x="20.31125" xlink:href="#m69026215db" y="48.007433"/>
      </g>
     </g>
     <g id="text_15">
      <!-- 2 -->
      <g transform="translate(9.86375 50.923683)scale(0.08 -0.08)">
       <use xlink:href="#TeXGyreHeros-Regular-32"/>
      </g>
     </g>
    </g>
    <g id="ytick_7">
     <g id="line2d_48">
      <path clip-path="url(#p713ca971d7)" d="M 20.31125 28.996228 
L 283.933297 28.996228 
" style="fill:none;stroke:#000000;stroke-dasharray:3.84,0.96,0.6,0.96;stroke-dashoffset:0;stroke-opacity:0;stroke-width:0.6;"/>
     </g>
     <g id="line2d_49">
      <g>
       <use style="stroke:#000000;stroke-width:0.6;" x="20.31125" xlink:href="#m69026215db" y="28.996228"/>
      </g>
     </g>
     <g id="text_16">
      <!-- 3 -->
      <g transform="translate(9.86375 31.912478)scale(0.08 -0.08)">
       <use xlink:href="#TeXGyreHeros-Regular-33"/>
      </g>
     </g>
    </g>
    <g id="ytick_8">
     <g id="line2d_50">
      <defs>
       <path d="M 0 0 
L -2.5 0 
" id="mbf48c0ae08" style="stroke:#000000;stroke-width:0.6;"/>
      </defs>
      <g>
       <use style="stroke:#000000;stroke-width:0.6;" x="20.31125" xlink:href="#mbf48c0ae08" y="152.569062"/>
      </g>
     </g>
    </g>
    <g id="ytick_9">
     <g id="line2d_51">
      <g>
       <use style="stroke:#000000;stroke-width:0.6;" x="20.31125" xlink:href="#mbf48c0ae08" y="133.557857"/>
      </g>
     </g>
    </g>
    <g id="ytick_10">
     <g id="line2d_52">
      <g>
       <use style="stroke:#000000;stroke-width:0.6;" x="20.31125" xlink:href="#mbf48c0ae08" y="114.546652"/>
      </g>
     </g>
    </g>
    <g id="ytick_11">
     <g id="line2d_53">
      <g>
       <use style="stroke:#000000;stroke-width:0.6;" x="20.31125" xlink:href="#mbf48c0ae08" y="95.535446"/>
      </g>
     </g>
    </g>
    <g id="ytick_12">
     <g id="line2d_54">
      <g>
       <use style="stroke:#000000;stroke-width:0.6;" x="20.31125" xlink:href="#mbf48c0ae08" y="76.524241"/>
      </g>
     </g>
    </g>
    <g id="ytick_13">
     <g id="line2d_55">
      <g>
       <use style="stroke:#000000;stroke-width:0.6;" x="20.31125" xlink:href="#mbf48c0ae08" y="57.513036"/>
      </g>
     </g>
    </g>
    <g id="ytick_14">
     <g id="line2d_56">
      <g>
       <use style="stroke:#000000;stroke-width:0.6;" x="20.31125" xlink:href="#mbf48c0ae08" y="38.50183"/>
      </g>
     </g>
    </g>
    <g id="ytick_15">
     <g id="line2d_57">
      <g>
       <use style="stroke:#000000;stroke-width:0.6;" x="20.31125" xlink:href="#mbf48c0ae08" y="19.490625"/>
      </g>
     </g>
    </g>
   </g>
   <g id="line2d_58">
    <path clip-path="url(#p713ca971d7)" d="M 20.31125 86.029844 
L 283.933297 86.029844 
" style="fill:none;stroke:#000000;stroke-dasharray:1.11,0.48;stroke-dashoffset:0;stroke-width:0.3;"/>
   </g>
   <g id="line2d_59">
    <path clip-path="url(#p713ca971d7)" d="M 152.122274 63.259481 
L 162.261583 69.79819 
L 172.400893 75.242592 
L 182.540202 80.038303 
L 192.679512 86.045924 
L 202.818821 92.852227 
L 212.958131 99.1746 
L 223.09744 101.566389 
L 233.23675 102.460613 
L 243.376059 103.299117 
L 253.515369 103.120696 
L 263.654678 101.980633 
L 273.793988 94.581319 
" style="fill:none;stroke:#929591;stroke-linecap:square;stroke-width:0.8;"/>
   </g>
   <g id="line2d_60">
    <path clip-path="url(#p713ca971d7)" d="M 152.122274 58.673274 
L 162.261583 66.889676 
L 172.400893 74.245607 
L 182.540202 84.621363 
L 192.679512 95.417719 
L 202.818821 102.996236 
L 212.958131 110.575794 
L 223.09744 113.14678 
L 233.23675 111.814984 
L 243.376059 108.56729 
L 253.515369 104.657884 
L 263.654678 96.130876 
L 273.793988 86.263303 
" style="fill:none;stroke:#929591;stroke-linecap:square;stroke-width:0.8;"/>
   </g>
   <g id="line2d_61">
    <path clip-path="url(#p713ca971d7)" d="M 152.122274 62.459133 
L 162.261583 66.634281 
L 172.400893 73.970469 
L 182.540202 81.435948 
L 192.679512 94.511635 
L 202.818821 108.157133 
L 212.958131 120.256016 
L 223.09744 125.629979 
L 233.23675 126.589155 
L 243.376059 125.499979 
L 253.515369 120.232748 
L 263.654678 114.86998 
L 273.793988 106.236973 
" style="fill:none;stroke:#929591;stroke-linecap:square;stroke-width:0.8;"/>
   </g>
   <g id="line2d_62">
    <path clip-path="url(#p713ca971d7)" d="M 152.122274 58.715104 
L 162.261583 68.199606 
L 172.400893 79.153433 
L 182.540202 84.816312 
L 192.679512 89.989541 
L 202.818821 100.516378 
L 212.958131 106.019425 
L 223.09744 107.045265 
L 233.23675 110.149072 
L 243.376059 108.309214 
L 253.515369 107.06291 
L 263.654678 103.076842 
L 273.793988 98.24962 
" style="fill:none;stroke:#929591;stroke-linecap:square;stroke-width:0.8;"/>
   </g>
   <g id="line2d_63">
    <path clip-path="url(#p713ca971d7)" d="M 152.122274 62.947333 
L 162.261583 63.603245 
L 172.400893 69.881051 
L 182.540202 76.381828 
L 192.679512 84.677612 
L 202.818821 102.325487 
L 212.958131 112.183853 
L 223.09744 111.920157 
L 233.23675 109.545499 
L 243.376059 109.737707 
L 253.515369 106.315564 
L 263.654678 102.220426 
L 273.793988 93.360899 
" style="fill:none;stroke:#929591;stroke-linecap:square;stroke-width:0.8;"/>
   </g>
   <g id="line2d_64">
    <path clip-path="url(#p713ca971d7)" d="M 152.122274 59.603373 
L 162.261583 63.778745 
L 172.400893 76.295609 
L 182.540202 89.56157 
L 192.679512 102.164316 
L 202.818821 116.150389 
L 212.958131 123.517652 
L 223.09744 124.291296 
L 233.23675 125.305167 
L 243.376059 123.547662 
L 253.515369 115.391173 
L 263.654678 109.273217 
L 273.793988 100.415412 
" style="fill:none;stroke:#929591;stroke-linecap:square;stroke-width:0.8;"/>
   </g>
   <g id="line2d_65">
    <path clip-path="url(#p713ca971d7)" d="M 152.122274 63.106124 
L 162.261583 67.827239 
L 172.400893 78.737205 
L 182.540202 84.384197 
L 192.679512 90.286615 
L 202.818821 109.02388 
L 212.958131 114.738602 
L 223.09744 110.962721 
L 233.23675 113.515786 
L 243.376059 116.240056 
L 253.515369 115.447203 
L 263.654678 112.364773 
L 273.793988 103.432712 
" style="fill:none;stroke:#929591;stroke-linecap:square;stroke-width:0.8;"/>
   </g>
   <g id="line2d_66">
    <path clip-path="url(#p713ca971d7)" d="M 152.122274 58.839676 
L 162.261583 69.195013 
L 172.400893 78.921382 
L 182.540202 89.478567 
L 192.679512 104.320953 
L 202.818821 110.396388 
L 212.958131 111.111652 
L 223.09744 105.826727 
L 233.23675 103.592172 
L 243.376059 103.42978 
L 253.515369 98.106877 
L 263.654678 97.004564 
L 273.793988 90.576328 
" style="fill:none;stroke:#929591;stroke-linecap:square;stroke-width:0.8;"/>
   </g>
   <g id="line2d_67">
    <path clip-path="url(#p713ca971d7)" d="M 30.45056 88.813316 
L 40.589869 83.799969 
L 50.729179 78.986689 
L 60.868488 70.713986 
L 71.007798 66.10613 
L 81.147107 57.97154 
L 91.286417 55.637422 
L 101.425726 57.400232 
L 111.565036 50.557336 
L 121.704345 53.286885 
L 131.843655 54.37692 
L 141.982964 58.642072 
" style="fill:none;stroke:#000000;stroke-linecap:square;"/>
   </g>
   <g id="line2d_68">
    <path clip-path="url(#p713ca971d7)" d="M 141.982964 58.642072 
L 152.122274 60.950438 
" style="fill:none;stroke:#000000;stroke-dasharray:3.7,1.6;stroke-dashoffset:0;"/>
   </g>
   <g id="line2d_69">
    <path clip-path="url(#p713ca971d7)" d="M 152.122274 60.950438 
L 162.261583 66.990749 
L 172.400893 75.805919 
L 182.540202 83.839761 
L 192.679512 93.426789 
L 202.818821 105.302264 
L 212.958131 112.1972 
L 223.09744 112.548664 
L 233.23675 112.871557 
L 243.376059 112.32885 
L 253.515369 108.791882 
L 263.654678 104.615164 
L 273.793988 96.639571 
" style="fill:none;stroke:#ff0000;stroke-linecap:square;stroke-width:1.5;"/>
    <defs>
     <path d="M 0 1.5 
C 0.397805 1.5 0.77937 1.341951 1.06066 1.06066 
C 1.341951 0.77937 1.5 0.397805 1.5 0 
C 1.5 -0.397805 1.341951 -0.77937 1.06066 -1.06066 
C 0.77937 -1.341951 0.397805 -1.5 0 -1.5 
C -0.397805 -1.5 -0.77937 -1.341951 -1.06066 -1.06066 
C -1.341951 -0.77937 -1.5 -0.397805 -1.5 0 
C -1.5 0.397805 -1.341951 0.77937 -1.06066 1.06066 
C -0.77937 1.341951 -0.397805 1.5 0 1.5 
z
" id="m878d8c9655" style="stroke:#ff0000;"/>
    </defs>
    <g clip-path="url(#p713ca971d7)">
     <use style="fill:#ffffff;stroke:#ff0000;" x="152.122274" xlink:href="#m878d8c9655" y="60.950438"/>
     <use style="fill:#ffffff;stroke:#ff0000;" x="162.261583" xlink:href="#m878d8c9655" y="66.990749"/>
     <use style="fill:#ffffff;stroke:#ff0000;" x="172.400893" xlink:href="#m878d8c9655" y="75.805919"/>
     <use style="fill:#ffffff;stroke:#ff0000;" x="182.540202" xlink:href="#m878d8c9655" y="83.839761"/>
     <use style="fill:#ffffff;stroke:#ff0000;" x="192.679512" xlink:href="#m878d8c9655" y="93.426789"/>
     <use style="fill:#ffffff;stroke:#ff0000;" x="202.818821" xlink:href="#m878d8c9655" y="105.302264"/>
     <use style="fill:#ffffff;stroke:#ff0000;" x="212.958131" xlink:href="#m878d8c9655" y="112.1972"/>
     <use style="fill:#ffffff;stroke:#ff0000;" x="223.09744" xlink:href="#m878d8c9655" y="112.548664"/>
     <use style="fill:#ffffff;stroke:#ff0000;" x="233.23675" xlink:href="#m878d8c9655" y="112.871557"/>
     <use style="fill:#ffffff;stroke:#ff0000;" x="243.376059" xlink:href="#m878d8c9655" y="112.32885"/>
     <use style="fill:#ffffff;stroke:#ff0000;" x="253.515369" xlink:href="#m878d8c9655" y="108.791882"/>
     <use style="fill:#ffffff;stroke:#ff0000;" x="263.654678" xlink:href="#m878d8c9655" y="104.615164"/>
     <use style="fill:#ffffff;stroke:#ff0000;" x="273.793988" xlink:href="#m878d8c9655" y="96.639571"/>
    </g>
   </g>
   <g id="patch_3">
    <path d="M 20.31125 152.569062 
L 20.31125 19.490625 
" style="fill:none;stroke:#000000;stroke-linecap:square;stroke-linejoin:miter;stroke-width:0.6;"/>
   </g>
   <g id="patch_4">
    <path d="M 283.933297 152.569062 
L 283.933297 19.490625 
" style="fill:none;stroke:#000000;stroke-linecap:square;stroke-linejoin:miter;stroke-width:0.6;"/>
   </g>
   <g id="patch_5">
    <path d="M 20.31125 152.569062 
L 283.933297 152.569062 
" style="fill:none;stroke:#000000;stroke-linecap:square;stroke-linejoin:miter;stroke-width:0.6;"/>
   </g>
   <g id="patch_6">
    <path d="M 20.31125 19.490625 
L 283.933297 19.490625 
" style="fill:none;stroke:#000000;stroke-linecap:square;stroke-linejoin:miter;stroke-width:0.6;"/>
   </g>
   <g id="text_17">
    <!-- Pred. from 2024-03 -->
    <g transform="translate(20.31125 14.490625)scale(0.1 -0.1)">
     <defs>
      <path d="M 4051 3219 
Q 4051 2509 3667 2086 
Q 3283 1664 2643 1664 
L 1446 1664 
L 1446 0 
L 486 0 
L 486 4666 
L 2547 4666 
Q 3277 4666 3664 4294 
Q 4051 3923 4051 3219 
z
M 3091 3162 
Q 3091 3520 2908 3693 
Q 2726 3866 2342 3866 
L 1446 3866 
L 1446 2464 
L 2342 2464 
Q 3091 2464 3091 3162 
z
" id="TeXGyreHeros-Bold-50" transform="scale(0.015625)"/>
      <path d="M 2368 2598 
Q 2208 2624 2086 2624 
Q 1299 2624 1299 1837 
L 1299 0 
L 403 0 
L 403 3456 
L 1299 3456 
L 1299 2778 
Q 1440 3130 1696 3322 
Q 1952 3514 2259 3514 
Q 2317 3514 2368 3507 
L 2368 2598 
z
" id="TeXGyreHeros-Bold-72" transform="scale(0.015625)"/>
      <path d="M 3360 1600 
L 3354 1491 
L 1037 1491 
Q 1056 1011 1235 819 
Q 1414 627 1754 627 
Q 2330 627 2438 973 
L 3322 973 
Q 3174 474 2745 208 
Q 2317 -58 1722 -58 
Q 979 -58 560 400 
Q 141 858 141 1683 
Q 141 2547 566 3030 
Q 992 3514 1741 3514 
Q 2502 3514 2931 3005 
Q 3360 2496 3360 1600 
z
M 2426 2086 
Q 2394 2451 2208 2640 
Q 2022 2829 1728 2829 
Q 1139 2829 1050 2086 
L 2426 2086 
z
" id="TeXGyreHeros-Bold-65" transform="scale(0.015625)"/>
      <path d="M 3488 0 
L 2592 0 
L 2592 397 
Q 2246 -58 1638 -58 
Q 973 -58 579 451 
Q 186 960 186 1722 
Q 186 2502 602 3008 
Q 1018 3514 1638 3514 
Q 2266 3514 2592 3008 
L 2592 4666 
L 3488 4666 
L 3488 0 
z
M 2592 1709 
Q 2592 2202 2387 2483 
Q 2182 2765 1837 2765 
Q 1498 2765 1290 2480 
Q 1082 2195 1082 1721 
Q 1082 1248 1290 969 
Q 1498 691 1837 691 
Q 2176 691 2384 966 
Q 2592 1242 2592 1709 
z
" id="TeXGyreHeros-Bold-64" transform="scale(0.015625)"/>
      <path d="M 1370 0 
L 410 0 
L 410 934 
L 1370 934 
L 1370 0 
z
" id="TeXGyreHeros-Bold-2e" transform="scale(0.015625)"/>
      <path id="TeXGyreHeros-Bold-20" transform="scale(0.015625)"/>
      <path d="M 2003 2790 
L 1472 2790 
L 1472 0 
L 576 0 
L 576 2790 
L 90 2790 
L 90 3386 
L 576 3386 
L 576 3802 
Q 576 4666 1459 4666 
Q 1722 4666 1971 4646 
L 1971 3974 
Q 1856 3994 1715 3994 
Q 1472 3994 1472 3725 
L 1472 3386 
L 2003 3386 
L 2003 2790 
z
" id="TeXGyreHeros-Bold-66" transform="scale(0.015625)"/>
      <path d="M 3642 1702 
Q 3642 877 3184 409 
Q 2726 -58 1933 -58 
Q 1133 -58 678 409 
Q 224 877 224 1728 
Q 224 2573 678 3043 
Q 1133 3514 1926 3514 
Q 2746 3514 3194 3043 
Q 3642 2573 3642 1702 
z
M 2746 1715 
Q 2746 2221 2525 2505 
Q 2304 2790 1933 2790 
Q 1562 2790 1341 2505 
Q 1120 2221 1120 1728 
Q 1120 1235 1341 950 
Q 1562 666 1933 666 
Q 2298 666 2522 950 
Q 2746 1235 2746 1715 
z
" id="TeXGyreHeros-Bold-6f" transform="scale(0.015625)"/>
      <path d="M 5274 0 
L 4378 0 
L 4378 2304 
Q 4378 2509 4246 2630 
Q 4115 2752 3891 2752 
Q 3603 2752 3440 2573 
Q 3277 2394 3277 2074 
L 3277 0 
L 2381 0 
L 2381 2304 
Q 2381 2509 2249 2630 
Q 2118 2752 1894 2752 
Q 1606 2752 1443 2573 
Q 1280 2394 1280 2074 
L 1280 0 
L 384 0 
L 384 3456 
L 1274 3456 
L 1274 3027 
Q 1498 3290 1712 3402 
Q 1926 3514 2221 3514 
Q 2899 3514 3162 3002 
Q 3546 3514 4173 3514 
Q 4691 3514 4982 3232 
Q 5274 2950 5274 2445 
L 5274 0 
z
" id="TeXGyreHeros-Bold-6d" transform="scale(0.015625)"/>
      <path d="M 3296 3194 
Q 3296 2733 3081 2413 
Q 2867 2093 2278 1658 
Q 1773 1293 1606 1136 
Q 1440 979 1357 800 
L 3277 800 
L 3277 0 
L 192 0 
Q 224 627 445 1001 
Q 666 1376 1242 1766 
Q 1990 2298 2195 2547 
Q 2400 2797 2400 3174 
Q 2400 3514 2230 3709 
Q 2061 3904 1760 3904 
Q 1453 3904 1283 3693 
Q 1114 3482 1114 3104 
L 1114 2957 
L 256 2957 
Q 250 3027 250 3117 
Q 250 3834 643 4234 
Q 1037 4634 1741 4634 
Q 2458 4634 2877 4243 
Q 3296 3853 3296 3194 
z
" id="TeXGyreHeros-Bold-32" transform="scale(0.015625)"/>
      <path d="M 3309 2259 
Q 3309 1606 3197 1145 
Q 3085 685 2870 425 
Q 2656 166 2384 54 
Q 2112 -58 1747 -58 
Q 1363 -58 1081 67 
Q 800 192 630 397 
Q 461 602 358 915 
Q 256 1229 221 1552 
Q 186 1875 186 2285 
Q 186 2707 221 3033 
Q 256 3360 361 3670 
Q 467 3981 636 4185 
Q 806 4390 1088 4512 
Q 1370 4634 1747 4634 
Q 2138 4634 2422 4506 
Q 2707 4378 2873 4173 
Q 3040 3968 3142 3648 
Q 3245 3328 3277 3005 
Q 3309 2682 3309 2259 
z
M 2413 2278 
Q 2413 2963 2333 3328 
Q 2253 3693 2121 3801 
Q 1990 3910 1747 3910 
Q 1498 3910 1360 3782 
Q 1222 3654 1152 3302 
Q 1082 2950 1082 2291 
Q 1082 1632 1158 1283 
Q 1235 934 1369 822 
Q 1504 710 1747 710 
Q 1997 710 2134 835 
Q 2272 960 2342 1302 
Q 2413 1645 2413 2278 
z
" id="TeXGyreHeros-Bold-30" transform="scale(0.015625)"/>
      <path d="M 3341 1005 
L 2867 1005 
L 2867 0 
L 1971 0 
L 1971 1005 
L 154 1005 
L 154 1760 
L 1811 4538 
L 2867 4538 
L 2867 1747 
L 3341 1747 
L 3341 1005 
z
M 1971 1747 
L 1971 3686 
L 787 1747 
L 1971 1747 
z
" id="TeXGyreHeros-Bold-34" transform="scale(0.015625)"/>
      <path d="M 1907 1325 
L 166 1325 
L 166 2189 
L 1907 2189 
L 1907 1325 
z
" id="TeXGyreHeros-Bold-2d" transform="scale(0.015625)"/>
      <path d="M 3302 1395 
Q 3302 730 2870 336 
Q 2438 -58 1715 -58 
Q 1018 -58 602 342 
Q 186 742 186 1421 
L 1056 1421 
Q 1056 1075 1235 892 
Q 1414 710 1734 710 
Q 2029 710 2217 902 
Q 2406 1094 2406 1395 
Q 2406 1754 2156 1914 
Q 1907 2074 1389 2074 
L 1389 2675 
L 1466 2675 
Q 1869 2675 2064 2828 
Q 2259 2982 2259 3315 
Q 2259 3597 2112 3753 
Q 1965 3910 1696 3910 
Q 1363 3910 1219 3721 
Q 1075 3533 1075 3110 
L 243 3110 
L 243 3187 
Q 243 3904 640 4269 
Q 1037 4634 1715 4634 
Q 2374 4634 2764 4298 
Q 3155 3962 3155 3398 
Q 3155 3091 3017 2883 
Q 2880 2675 2560 2477 
Q 2950 2285 3126 2035 
Q 3302 1786 3302 1395 
z
" id="TeXGyreHeros-Bold-33" transform="scale(0.015625)"/>
     </defs>
     <use xlink:href="#TeXGyreHeros-Bold-50"/>
     <use x="66.699997" xlink:href="#TeXGyreHeros-Bold-72"/>
     <use x="105.599991" xlink:href="#TeXGyreHeros-Bold-65"/>
     <use x="161.199982" xlink:href="#TeXGyreHeros-Bold-64"/>
     <use x="222.299973" xlink:href="#TeXGyreHeros-Bold-2e"/>
     <use x="250.09996" xlink:href="#TeXGyreHeros-Bold-20"/>
     <use x="277.899948" xlink:href="#TeXGyreHeros-Bold-66"/>
     <use x="311.199936" xlink:href="#TeXGyreHeros-Bold-72"/>
     <use x="350.09993" xlink:href="#TeXGyreHeros-Bold-6f"/>
     <use x="411.199921" xlink:href="#TeXGyreHeros-Bold-6d"/>
     <use x="500.099915" xlink:href="#TeXGyreHeros-Bold-20"/>
     <use x="527.899902" xlink:href="#TeXGyreHeros-Bold-32"/>
     <use x="583.499893" xlink:href="#TeXGyreHeros-Bold-30"/>
     <use x="639.099884" xlink:href="#TeXGyreHeros-Bold-32"/>
     <use x="694.699875" xlink:href="#TeXGyreHeros-Bold-34"/>
     <use x="750.299866" xlink:href="#TeXGyreHeros-Bold-2d"/>
     <use x="783.599854" xlink:href="#TeXGyreHeros-Bold-30"/>
     <use x="839.199844" xlink:href="#TeXGyreHeros-Bold-33"/>
    </g>
   </g>
   <g id="legend_1">
    <g id="line2d_70">
     <path d="M 168.363297 26.619375 
L 184.363297 26.619375 
" style="fill:none;stroke:#000000;stroke-linecap:square;"/>
    </g>
    <g id="line2d_71"/>
    <g id="text_18">
     <!-- OBS (HadISST) -->
     <g transform="translate(188.363297 29.419375)scale(0.08 -0.08)">
      <defs>
       <path d="M 4749 2259 
Q 4749 1216 4131 550 
Q 3514 -115 2496 -115 
Q 1485 -115 864 547 
Q 243 1210 243 2298 
Q 243 3398 867 4089 
Q 1491 4781 2490 4781 
Q 3514 4781 4131 4086 
Q 4749 3392 4749 2259 
z
M 4154 2272 
Q 4154 3162 3699 3709 
Q 3245 4256 2490 4256 
Q 1754 4256 1296 3709 
Q 838 3162 838 2298 
Q 838 1440 1292 925 
Q 1747 410 2496 410 
Q 3238 410 3696 922 
Q 4154 1434 4154 2272 
z
" id="TeXGyreHeros-Regular-4f" transform="scale(0.015625)"/>
       <path d="M 3987 1331 
Q 3987 749 3609 374 
Q 3232 0 2611 0 
L 506 0 
L 506 4666 
L 2400 4666 
Q 3046 4666 3414 4336 
Q 3782 4006 3782 3482 
Q 3782 2765 3136 2464 
Q 3584 2291 3785 2022 
Q 3987 1754 3987 1331 
z
M 2253 2656 
Q 3187 2656 3187 3398 
Q 3187 4141 2253 4141 
L 1101 4141 
L 1101 2656 
L 2253 2656 
z
M 3392 1325 
Q 3392 1683 3177 1907 
Q 2963 2131 2554 2131 
L 1101 2131 
L 1101 525 
L 2554 525 
Q 2957 525 3174 749 
Q 3392 973 3392 1325 
z
" id="TeXGyreHeros-Regular-42" transform="scale(0.015625)"/>
       <path d="M 3974 1280 
Q 3974 640 3497 262 
Q 3021 -115 2150 -115 
Q 1299 -115 803 301 
Q 307 717 307 1517 
L 870 1517 
Q 870 1005 1206 707 
Q 1542 410 2189 410 
Q 3379 410 3379 1222 
Q 3379 1754 2522 1978 
L 1363 2285 
Q 448 2522 448 3373 
Q 448 4013 896 4397 
Q 1344 4781 2106 4781 
Q 2912 4781 3363 4400 
Q 3814 4019 3814 3334 
L 3251 3334 
Q 3251 3789 2947 4035 
Q 2643 4282 2086 4282 
Q 1619 4282 1331 4048 
Q 1043 3814 1043 3456 
Q 1043 3187 1216 3030 
Q 1389 2874 1811 2765 
L 2982 2451 
Q 3456 2323 3715 2016 
Q 3974 1709 3974 1280 
z
" id="TeXGyreHeros-Regular-53" transform="scale(0.015625)"/>
       <path id="TeXGyreHeros-Regular-20" transform="scale(0.015625)"/>
       <path d="M 1862 -1357 
L 1510 -1357 
Q 1030 -730 748 86 
Q 467 902 467 1657 
Q 467 2413 748 3225 
Q 1030 4038 1510 4666 
L 1862 4666 
Q 986 3251 986 1658 
Q 986 70 1862 -1357 
z
" id="TeXGyreHeros-Regular-28" transform="scale(0.015625)"/>
       <path d="M 4122 0 
L 3526 0 
L 3526 2125 
L 1126 2125 
L 1126 0 
L 531 0 
L 531 4666 
L 1126 4666 
L 1126 2650 
L 3526 2650 
L 3526 4666 
L 4122 4666 
L 4122 0 
z
" id="TeXGyreHeros-Regular-48" transform="scale(0.015625)"/>
       <path d="M 3424 13 
Q 3200 -45 3059 -45 
Q 2861 -45 2707 80 
Q 2554 205 2509 397 
Q 2048 -96 1370 -96 
Q 858 -96 563 160 
Q 269 416 269 870 
Q 269 1498 858 1741 
Q 1018 1805 1197 1840 
Q 1376 1875 1933 1946 
Q 2246 1984 2368 2067 
Q 2490 2150 2490 2317 
L 2490 2458 
Q 2490 2701 2294 2829 
Q 2099 2957 1741 2957 
Q 1370 2957 1178 2813 
Q 986 2669 954 2362 
L 416 2362 
Q 461 3450 1760 3450 
Q 2381 3450 2701 3216 
Q 3021 2982 3021 2534 
L 3021 666 
Q 3021 403 3309 403 
Q 3366 403 3424 416 
L 3424 13 
z
M 2490 1158 
L 2490 1658 
Q 2278 1562 1632 1472 
Q 1197 1408 1011 1277 
Q 826 1146 826 883 
Q 826 371 1485 371 
Q 1888 371 2189 592 
Q 2490 813 2490 1158 
z
" id="TeXGyreHeros-Regular-61" transform="scale(0.015625)"/>
       <path d="M 3168 0 
L 2694 0 
L 2694 493 
Q 2477 179 2224 41 
Q 1971 -96 1626 -96 
Q 947 -96 556 384 
Q 166 864 166 1709 
Q 166 2509 560 2979 
Q 954 3450 1606 3450 
Q 2298 3450 2637 2931 
L 2637 4666 
L 3168 4666 
L 3168 0 
z
M 2637 1664 
Q 2637 2246 2381 2598 
Q 2125 2950 1696 2950 
Q 1254 2950 988 2604 
Q 723 2259 723 1676 
Q 723 1094 992 748 
Q 1261 403 1702 403 
Q 2125 403 2381 745 
Q 2637 1088 2637 1664 
z
" id="TeXGyreHeros-Regular-64" transform="scale(0.015625)"/>
       <path d="M 1235 0 
L 640 0 
L 640 4666 
L 1235 4666 
L 1235 0 
z
" id="TeXGyreHeros-Regular-49" transform="scale(0.015625)"/>
       <path d="M 3795 4141 
L 2266 4141 
L 2266 0 
L 1670 0 
L 1670 4141 
L 134 4141 
L 134 4666 
L 3795 4666 
L 3795 4141 
z
" id="TeXGyreHeros-Regular-54" transform="scale(0.015625)"/>
       <path d="M 1356 3222 
Q 1638 2406 1638 1651 
Q 1638 896 1356 83 
Q 1075 -730 595 -1357 
L 243 -1357 
Q 1120 58 1120 1651 
Q 1120 3238 243 4666 
L 595 4666 
Q 1075 4038 1356 3222 
z
" id="TeXGyreHeros-Regular-29" transform="scale(0.015625)"/>
      </defs>
      <use xlink:href="#TeXGyreHeros-Regular-4f"/>
      <use x="77.799988" xlink:href="#TeXGyreHeros-Regular-42"/>
      <use x="144.499985" xlink:href="#TeXGyreHeros-Regular-53"/>
      <use x="211.199982" xlink:href="#TeXGyreHeros-Regular-20"/>
      <use x="238.999969" xlink:href="#TeXGyreHeros-Regular-28"/>
      <use x="272.299957" xlink:href="#TeXGyreHeros-Regular-48"/>
      <use x="344.499939" xlink:href="#TeXGyreHeros-Regular-61"/>
      <use x="400.09993" xlink:href="#TeXGyreHeros-Regular-64"/>
      <use x="455.699921" xlink:href="#TeXGyreHeros-Regular-49"/>
      <use x="483.499908" xlink:href="#TeXGyreHeros-Regular-53"/>
      <use x="550.199905" xlink:href="#TeXGyreHeros-Regular-53"/>
      <use x="616.899902" xlink:href="#TeXGyreHeros-Regular-54"/>
      <use x="677.999893" xlink:href="#TeXGyreHeros-Regular-29"/>
     </g>
    </g>
    <g id="line2d_72">
     <path d="M 168.363297 38.339375 
L 184.363297 38.339375 
" style="fill:none;stroke:#929591;stroke-linecap:square;stroke-width:0.6;"/>
    </g>
    <g id="line2d_73"/>
    <g id="text_19">
     <!-- FGOALS-g3 (8 Members) -->
     <g transform="translate(188.363297 41.139375)scale(0.08 -0.08)">
      <defs>
       <path d="M 3706 4141 
L 1171 4141 
L 1171 2650 
L 3398 2650 
L 3398 2125 
L 1171 2125 
L 1171 0 
L 576 0 
L 576 4666 
L 3706 4666 
L 3706 4141 
z
" id="TeXGyreHeros-Regular-46" transform="scale(0.015625)"/>
       <path d="M 4538 0 
L 4160 0 
L 4013 614 
Q 3360 -115 2419 -115 
Q 1472 -115 877 547 
Q 282 1210 282 2285 
Q 282 3366 880 4073 
Q 1478 4781 2522 4781 
Q 3322 4781 3834 4374 
Q 4346 3968 4474 3251 
L 3866 3251 
Q 3770 3706 3405 3981 
Q 3040 4256 2515 4256 
Q 1779 4256 1328 3718 
Q 877 3181 877 2317 
Q 877 1453 1321 931 
Q 1766 410 2547 410 
Q 3187 410 3600 800 
Q 4013 1190 4013 1811 
L 4013 1939 
L 2592 1939 
L 2592 2464 
L 4538 2464 
L 4538 0 
z
" id="TeXGyreHeros-Regular-47" transform="scale(0.015625)"/>
       <path d="M 4179 0 
L 3514 0 
L 3034 1402 
L 1235 1402 
L 742 0 
L 109 0 
L 1773 4666 
L 2541 4666 
L 4179 0 
z
M 2867 1901 
L 2150 4026 
L 1382 1901 
L 2867 1901 
z
" id="TeXGyreHeros-Regular-41" transform="scale(0.015625)"/>
       <path d="M 3411 0 
L 512 0 
L 512 4666 
L 1107 4666 
L 1107 525 
L 3411 525 
L 3411 0 
z
" id="TeXGyreHeros-Regular-4c" transform="scale(0.015625)"/>
       <path d="M 3130 550 
Q 3130 -538 2784 -966 
Q 2438 -1395 1632 -1395 
Q 1043 -1395 691 -1126 
Q 339 -858 294 -384 
L 838 -384 
Q 928 -947 1651 -947 
Q 2138 -947 2387 -656 
Q 2637 -365 2637 282 
L 2637 506 
Q 2368 186 2125 45 
Q 1882 -96 1568 -96 
Q 966 -96 576 384 
Q 186 864 186 1645 
Q 186 2458 579 2954 
Q 973 3450 1613 3450 
Q 2240 3450 2637 2867 
L 2637 3354 
L 3130 3354 
L 3130 550 
z
M 2586 1658 
Q 2586 2266 2342 2611 
Q 2099 2957 1670 2957 
Q 1242 2957 992 2617 
Q 742 2278 742 1677 
Q 742 1069 988 733 
Q 1235 397 1677 397 
Q 2099 397 2342 729 
Q 2586 1062 2586 1658 
z
" id="TeXGyreHeros-Regular-67" transform="scale(0.015625)"/>
       <path d="M 3283 1280 
Q 3283 666 2857 285 
Q 2432 -96 1760 -96 
Q 1082 -96 659 285 
Q 237 666 237 1286 
Q 237 2016 1011 2387 
Q 666 2605 531 2809 
Q 397 3014 397 3328 
Q 397 3859 777 4198 
Q 1158 4538 1760 4538 
Q 2362 4538 2742 4198 
Q 3123 3859 3123 3328 
Q 3123 3008 2988 2803 
Q 2854 2598 2502 2387 
Q 3283 2016 3283 1280 
z
M 2547 3315 
Q 2547 3648 2332 3843 
Q 2118 4038 1760 4038 
Q 1402 4038 1187 3843 
Q 973 3648 973 3322 
Q 973 3002 1187 2806 
Q 1402 2611 1760 2611 
Q 2112 2611 2329 2803 
Q 2547 2995 2547 3315 
z
M 2707 1274 
Q 2707 1670 2448 1904 
Q 2189 2138 1760 2138 
Q 1331 2138 1072 1904 
Q 813 1670 813 1273 
Q 813 877 1072 640 
Q 1331 403 1747 403 
Q 2182 403 2444 636 
Q 2707 870 2707 1274 
z
" id="TeXGyreHeros-Regular-38" transform="scale(0.015625)"/>
       <path d="M 4870 0 
L 4307 0 
L 4307 3910 
L 2995 0 
L 2368 0 
L 1043 3910 
L 1043 0 
L 480 0 
L 480 4666 
L 1306 4666 
L 2688 602 
L 4045 4666 
L 4870 4666 
L 4870 0 
z
" id="TeXGyreHeros-Regular-4d" transform="scale(0.015625)"/>
       <path d="M 3283 1523 
L 813 1523 
Q 819 966 1091 681 
Q 1363 397 1798 397 
Q 2470 397 2675 1018 
L 3213 1018 
Q 3110 506 2729 205 
Q 2349 -96 1779 -96 
Q 1069 -96 662 368 
Q 256 832 256 1657 
Q 256 2483 672 2966 
Q 1088 3450 1792 3450 
Q 2266 3450 2627 3213 
Q 2989 2976 3149 2566 
Q 3283 2214 3283 1523 
z
M 2714 1997 
Q 2714 2394 2445 2675 
Q 2176 2957 1786 2957 
Q 1382 2957 1120 2681 
Q 858 2406 826 1958 
L 2707 1958 
L 2714 1997 
z
" id="TeXGyreHeros-Regular-65" transform="scale(0.015625)"/>
       <path d="M 4864 0 
L 4333 0 
L 4333 2310 
Q 4333 2630 4173 2806 
Q 4013 2982 3718 2982 
Q 3392 2982 3158 2726 
Q 2925 2470 2925 2106 
L 2925 0 
L 2394 0 
L 2394 2310 
Q 2394 2630 2230 2806 
Q 2067 2982 1773 2982 
Q 1446 2982 1216 2726 
Q 986 2470 986 2106 
L 986 0 
L 454 0 
L 454 3354 
L 941 3354 
L 941 2880 
Q 1158 3181 1398 3315 
Q 1638 3450 1971 3450 
Q 2592 3450 2874 2938 
Q 3110 3219 3340 3334 
Q 3571 3450 3904 3450 
Q 4371 3450 4617 3210 
Q 4864 2970 4864 2515 
L 4864 0 
z
" id="TeXGyreHeros-Regular-6d" transform="scale(0.015625)"/>
       <path d="M 3347 1715 
Q 3347 896 2947 400 
Q 2547 -96 1888 -96 
Q 1203 -96 826 480 
L 826 0 
L 346 0 
L 346 4666 
L 877 4666 
L 877 2899 
Q 1242 3450 1914 3450 
Q 2579 3450 2963 2989 
Q 3347 2528 3347 1715 
z
M 2790 1683 
Q 2790 2246 2521 2598 
Q 2253 2950 1811 2950 
Q 1389 2970 1133 2618 
Q 877 2266 877 1677 
Q 877 1107 1133 755 
Q 1389 403 1811 403 
Q 2246 403 2518 758 
Q 2790 1114 2790 1683 
z
" id="TeXGyreHeros-Regular-62" transform="scale(0.015625)"/>
       <path d="M 2054 2886 
Q 1453 2880 1216 2605 
Q 979 2330 979 1741 
L 979 0 
L 448 0 
L 448 3354 
L 934 3354 
L 934 2746 
Q 1165 3123 1379 3286 
Q 1594 3450 1850 3450 
Q 1920 3450 2054 3430 
L 2054 2886 
z
" id="TeXGyreHeros-Regular-72" transform="scale(0.015625)"/>
       <path d="M 2938 941 
Q 2938 461 2563 182 
Q 2189 -96 1555 -96 
Q 896 -96 566 176 
Q 237 448 218 1024 
L 781 1024 
Q 832 659 1024 528 
Q 1216 397 1600 397 
Q 1952 397 2166 531 
Q 2381 666 2381 896 
Q 2381 1075 2262 1171 
Q 2144 1267 1862 1338 
L 1363 1459 
Q 768 1600 534 1814 
Q 301 2029 301 2426 
Q 301 2893 653 3171 
Q 1005 3450 1587 3450 
Q 2170 3450 2483 3181 
Q 2797 2912 2803 2419 
L 2240 2419 
Q 2221 2957 1568 2957 
Q 1242 2957 1050 2819 
Q 858 2682 858 2451 
Q 858 2272 1005 2160 
Q 1152 2048 1478 1971 
L 1990 1850 
Q 2496 1728 2717 1520 
Q 2938 1312 2938 941 
z
" id="TeXGyreHeros-Regular-73" transform="scale(0.015625)"/>
      </defs>
      <use xlink:href="#TeXGyreHeros-Regular-46"/>
      <use x="61.099991" xlink:href="#TeXGyreHeros-Regular-47"/>
      <use x="138.899979" xlink:href="#TeXGyreHeros-Regular-4f"/>
      <use x="216.699966" xlink:href="#TeXGyreHeros-Regular-41"/>
      <use x="283.399963" xlink:href="#TeXGyreHeros-Regular-4c"/>
      <use x="338.999954" xlink:href="#TeXGyreHeros-Regular-53"/>
      <use x="405.699951" xlink:href="#TeXGyreHeros-Regular-2d"/>
      <use x="438.999939" xlink:href="#TeXGyreHeros-Regular-67"/>
      <use x="494.59993" xlink:href="#TeXGyreHeros-Regular-33"/>
      <use x="550.199921" xlink:href="#TeXGyreHeros-Regular-20"/>
      <use x="577.999908" xlink:href="#TeXGyreHeros-Regular-28"/>
      <use x="611.299896" xlink:href="#TeXGyreHeros-Regular-38"/>
      <use x="666.899887" xlink:href="#TeXGyreHeros-Regular-20"/>
      <use x="694.699875" xlink:href="#TeXGyreHeros-Regular-4d"/>
      <use x="777.999863" xlink:href="#TeXGyreHeros-Regular-65"/>
      <use x="833.599854" xlink:href="#TeXGyreHeros-Regular-6d"/>
      <use x="916.899841" xlink:href="#TeXGyreHeros-Regular-62"/>
      <use x="972.499832" xlink:href="#TeXGyreHeros-Regular-65"/>
      <use x="1028.099823" xlink:href="#TeXGyreHeros-Regular-72"/>
      <use x="1061.399811" xlink:href="#TeXGyreHeros-Regular-73"/>
      <use x="1111.399796" xlink:href="#TeXGyreHeros-Regular-29"/>
     </g>
    </g>
    <g id="line2d_74">
     <path d="M 168.363297 50.059375 
L 184.363297 50.059375 
" style="fill:none;stroke:#ff0000;stroke-linecap:square;stroke-width:1.5;"/>
    </g>
    <g id="line2d_75">
     <g>
      <use style="fill:#ffffff;stroke:#ff0000;" x="176.363297" xlink:href="#m878d8c9655" y="50.059375"/>
     </g>
    </g>
    <g id="text_20">
     <!-- FGOALS-g3 (MME) -->
     <g transform="translate(188.363297 52.859375)scale(0.08 -0.08)">
      <defs>
       <path d="M 3923 0 
L 576 0 
L 576 4666 
L 3808 4666 
L 3808 4141 
L 1171 4141 
L 1171 2650 
L 3712 2650 
L 3712 2125 
L 1171 2125 
L 1171 525 
L 3923 525 
L 3923 0 
z
" id="TeXGyreHeros-Regular-45" transform="scale(0.015625)"/>
      </defs>
      <use xlink:href="#TeXGyreHeros-Regular-46"/>
      <use x="61.099991" xlink:href="#TeXGyreHeros-Regular-47"/>
      <use x="138.899979" xlink:href="#TeXGyreHeros-Regular-4f"/>
      <use x="216.699966" xlink:href="#TeXGyreHeros-Regular-41"/>
      <use x="283.399963" xlink:href="#TeXGyreHeros-Regular-4c"/>
      <use x="338.999954" xlink:href="#TeXGyreHeros-Regular-53"/>
      <use x="405.699951" xlink:href="#TeXGyreHeros-Regular-2d"/>
      <use x="438.999939" xlink:href="#TeXGyreHeros-Regular-67"/>
      <use x="494.59993" xlink:href="#TeXGyreHeros-Regular-33"/>
      <use x="550.199921" xlink:href="#TeXGyreHeros-Regular-20"/>
      <use x="577.999908" xlink:href="#TeXGyreHeros-Regular-28"/>
      <use x="611.299896" xlink:href="#TeXGyreHeros-Regular-4d"/>
      <use x="694.599884" xlink:href="#TeXGyreHeros-Regular-4d"/>
      <use x="777.899872" xlink:href="#TeXGyreHeros-Regular-45"/>
      <use x="844.599869" xlink:href="#TeXGyreHeros-Regular-29"/>
     </g>
    </g>
   </g>
  </g>
 </g>
 <defs>
  <clipPath id="p713ca971d7">
   <rect height="133.078437" width="263.622047" x="20.31125" y="19.490625"/>
  </clipPath>
 </defs>
</svg>
